<svg width="40" height="40" viewBox="0 0 40 40" fill="none" xmlns="http://www.w3.org/2000/svg">
<g clip-path="url(#clip0_89_28018)">
<path d="M7.12639 29.6987L9.98732 32.5844L27.3013 15.4188L30.1622 18.3045L33.0479 15.4435L30.187 12.5579L33.0726 9.69695L30.2117 6.81129L27.326 9.67222L24.4651 6.78655L21.5794 9.64748L24.4404 12.5331L7.12639 29.6987ZM15.8328 9.62275L18.7185 6.76182L21.5794 9.64748L18.6938 12.5084L15.8328 9.62275ZM15.8328 9.62275L12.9472 12.4837L10.0863 9.59802L12.9719 6.73709L15.8328 9.62275ZM30.1375 24.0511L33.0232 21.1901L30.1622 18.3045L27.2766 21.1654L30.1375 24.0511ZM30.1375 24.0511L27.2518 26.912L30.1128 29.7977L32.9984 26.9367L30.1375 24.0511Z" fill="#51FF01"/>
</g>
<defs>
<clipPath id="clip0_89_28018">
<rect width="40" height="40" fill="white"/>
</clipPath>
</defs>
</svg>
