<svg width="48" height="48" viewBox="0 0 48 48" fill="none" xmlns="http://www.w3.org/2000/svg">
<g clip-path="url(#clip0_110_44)">
<rect x="45" width="3.46154" height="3.46154" fill="#51FF01"/>
<rect x="41.5391" y="3.46094" width="3.46154" height="3.46154" fill="#51FF01"/>
<rect x="45" y="3.46094" width="3.46154" height="3.46154" fill="#51FF01"/>
<rect x="38.0781" y="6.92188" width="3.46154" height="3.46154" fill="#51FF01"/>
<rect x="45" y="6.92188" width="3.46154" height="3.46154" fill="#51FF01"/>
<rect x="34.6152" y="10.3828" width="3.46154" height="3.46154" fill="#51FF01"/>
<rect x="45" y="10.3828" width="3.46154" height="3.46154" fill="#51FF01"/>
<rect x="27.6934" y="13.8477" width="3.46154" height="3.46154" fill="#51FF01"/>
<rect x="31.1523" y="13.8477" width="3.46154" height="3.46154" fill="#51FF01"/>
<rect x="45" y="13.8477" width="3.46154" height="3.46154" fill="#51FF01"/>
<rect x="24.2305" y="17.3086" width="3.46154" height="3.46154" fill="#51FF01"/>
<rect x="27.6934" y="17.3086" width="3.46154" height="3.46154" fill="#51FF01"/>
<rect x="45" y="17.3086" width="3.46154" height="3.46154" fill="#51FF01"/>
<rect x="20.7695" y="20.7695" width="3.46154" height="3.46154" fill="#51FF01"/>
<rect x="24.2305" y="20.7695" width="3.46154" height="3.46154" fill="#51FF01"/>
<rect x="45" y="20.7695" width="3.46154" height="3.46154" fill="#51FF01"/>
<rect x="17.3066" y="24.2305" width="3.46154" height="3.46154" fill="#51FF01"/>
<rect x="45" y="24.2305" width="3.46154" height="3.46154" fill="#51FF01"/>
<rect y="27.6914" width="3.46154" height="3.46154" fill="#51FF01"/>
<rect x="13.8477" y="27.6914" width="3.46154" height="3.46154" fill="#51FF01"/>
<rect x="45" y="27.6914" width="3.46154" height="3.46154" fill="#51FF01"/>
<rect y="31.1523" width="3.46154" height="3.46154" fill="#51FF01"/>
<rect x="10.3848" y="31.1523" width="3.46154" height="3.46154" fill="#51FF01"/>
<rect x="45" y="31.1523" width="3.46154" height="3.46154" fill="#51FF01"/>
<rect y="34.6172" width="3.46154" height="3.46154" fill="#51FF01"/>
<rect x="3.46094" y="34.6172" width="3.46154" height="3.46154" fill="#54FF04" fill-opacity="0.25098"/>
<rect x="6.92188" y="34.6172" width="3.46154" height="3.46154" fill="#51FF01"/>
<rect x="45" y="34.6172" width="3.46154" height="3.46154" fill="#51FF01"/>
<rect y="38.0781" width="3.46154" height="3.46154" fill="#51FF01"/>
<rect x="3.46094" y="38.0781" width="3.46154" height="3.46154" fill="#51FF01"/>
<rect x="45" y="38.0781" width="3.46154" height="3.46154" fill="#51FF01"/>
<rect y="41.5391" width="3.46154" height="3.46154" fill="#51FF01"/>
<rect x="45" y="41.5391" width="3.46154" height="3.46154" fill="#51FF01"/>
<rect x="20.7695" y="3.46094" width="3.46154" height="3.46154" fill="#51FF01" fill-opacity="0.937255"/>
<rect x="17.3086" y="6.92188" width="3.46154" height="3.46154" fill="#51FF01"/>
<rect x="20.7695" y="6.92188" width="3.46154" height="3.46154" fill="#51FF01"/>
<rect x="13.8477" y="10.3828" width="3.46154" height="3.46154" fill="#51FF01"/>
<rect x="17.3086" y="10.3828" width="3.46154" height="3.46154" fill="#51FF01"/>
<rect x="20.7695" y="10.3828" width="3.46154" height="3.46154" fill="#51FF01"/>
<rect x="10.3848" y="13.8457" width="3.46154" height="3.46154" fill="#51FF01"/>
<rect x="20.7695" y="13.8457" width="3.46154" height="3.46154" fill="#51FF01"/>
<rect x="6.92188" y="17.3066" width="3.46154" height="3.46154" fill="#51FF01"/>
<rect x="20.7695" y="17.3066" width="3.46154" height="3.46154" fill="#52FF02" fill-opacity="0.501961"/>
<rect x="3.46094" y="20.7695" width="3.46154" height="3.46154" fill="#51FF01"/>
<rect x="24.2305" y="20.7695" width="3.46154" height="3.46154" fill="#51FF01"/>
<rect x="41.5391" y="20.7695" width="3.46154" height="3.46154" fill="#51FF01"/>
<rect x="45" y="20.7695" width="3.46154" height="3.46154" fill="#51FF01"/>
<rect y="24.2285" width="3.46154" height="3.46154" fill="#51FF01"/>
<rect x="24.2305" y="24.2285" width="3.46154" height="3.46154" fill="#51FF01"/>
<rect x="38.0762" y="24.2285" width="3.46154" height="3.46154" fill="#51FF01"/>
<rect x="41.5391" y="24.2305" width="3.46154" height="3.46154" fill="#51FF01"/>
<rect x="24.2305" y="27.6914" width="3.46154" height="3.46154" fill="#51FF01"/>
<rect x="34.6152" y="27.6914" width="3.46154" height="3.46154" fill="#51FF01"/>
<rect x="38.0781" y="27.6914" width="3.46154" height="3.46154" fill="#51FF01"/>
<rect x="24.2305" y="31.1523" width="3.46154" height="3.46154" fill="#51FF01"/>
<rect x="31.1523" y="31.1523" width="3.46154" height="3.46154" fill="#51FF01"/>
<rect x="24.2305" y="34.6152" width="3.46154" height="3.46154" fill="#51FF01"/>
<rect x="27.6934" y="34.6152" width="3.46154" height="3.46154" fill="#51FF01"/>
<rect x="24.2305" y="38.0762" width="3.46154" height="3.46154" fill="#51FF01"/>
</g>
<defs>
<clipPath id="clip0_110_44">
<rect width="48" height="48" fill="white"/>
</clipPath>
</defs>
</svg>
